# xmcd
#
# Track frame offsets:
# 150
# 17336
# 33164
# 54822
# 70619
# 90590
# 103558
# 120360
# 136118
# 157733
# 166744
# 182899
# 193867
# 208782
# 228157
# 246817
# 269706
# 297092
#
# Disc length: 4341 seconds
#
#
# Revision: 1
# Processed by: cddbd v1.4PL0 Copyright (c) Steve Scherf et al.
# Submitted via: HACP 1.11
#
DISCID=e110f312
DTITLE=Ben Prevo - It's About Time
DYEAR=1999
DGENRE=Blues/Rock
TTITLE0=A Question of Time
TTITLE1=No Big Deal
TTITLE2=Lonesome Suzie
TTITLE3=New Rising Sun
TTITLE4=P.T.U.
TTITLE5=Tossed Twice
TTITLE6=It's Alright (I Need You)
TTITLE7=Texas Skies
TTITLE8=Waitin' by the Mailbox
TTITLE9=Chicken Legs
TTITLE10=Wish I Was In Heaven
TTITLE11=Since You've Been Gone
TTITLE12=Slow Boat
TTITLE13=Big Smoke in Montserrat
TTITLE14=Funky Buttercup
TTITLE15=Julie
TTITLE16=What U Do 2 Me
TTITLE17=Hello Sweetie
EXTD=All Tracks by Prevo except:\n4 - Prevo/Phillips/Byrne\n11 - Trad. Arr. Prev
EXTD=o\n12 - Prevo/Kinsella\n14,15,18 - Prevo/Phillips/Byrne/O'Connor\n3 - Richa
EXTD=rd Manuel\n\nWebsite: http://www.benprevo.com
EXTT0=
EXTT1=
EXTT2=
EXTT3=
EXTT4=
EXTT5=
EXTT6=
EXTT7=
EXTT8=
EXTT9=
EXTT10=
EXTT11=
EXTT12=
EXTT13=
EXTT14=
EXTT15=
EXTT16=
EXTT17=
PLAYORDER=
